<?xml version="1.0" encoding="UTF-8"?>
<svg xmlns="http://www.w3.org/2000/svg" viewBox="0 0 1024 1024" width="1024" height="1024">
  <defs>
    <style>
      .stroke { stroke: #0f172a; stroke-width: 22; stroke-linejoin: round; stroke-linecap: round; }
      .gold   { fill: #f6c945; }
      .gold-dk{ fill: #e2ac1e; }
      .sky    { fill: #1f87ff; }
      .inner  { fill: #1fa3a3; }
      .skin   { fill: #f7c8a1; }
      .helmet { fill: #9aa3ad; }
      .helmet-hi { fill: #c8d0d8; }
      .brown  { fill: #754c24; }
      .white  { fill: #ffffff; }
      .shadow { opacity: .12; }
    </style>
    <filter id="softShadow" x="-20%" y="-20%" width="140%" height="140%">
      <feDropShadow dx="0" dy="18" stdDeviation="24" flood-color="#0f172a" flood-opacity="0.35"/>
    </filter>
  </defs>

  <!-- circular radial bg glow -->
  <radialGradient id="bgGrad" cx="50%" cy="45%" r="60%">
    <stop offset="0%" stop-color="#0b4da8"/>
    <stop offset="100%" stop-color="#072a63"/>
  </radialGradient>
  <rect x="0" y="0" width="1024" height="1024" fill="url(#bgGrad)"/>

  <!-- Shield outer -->
  <g filter="url(#softShadow)">
    <path class="gold stroke"
      d="M512 116
         C 332 116 176 208 176 336
         v140
         c 0 228 188 372 336 438
         c 148 -66 336 -210 336 -438
         V336
         C 848 208 692 116 512 116 z"/>
    <!-- Shield inner lip -->
    <path class="gold-dk stroke"
      d="M512 168
         C 354 168 232 246 232 348
         v120
         c 0 194 160 314 280 370
         c 120 -56 280 -176 280 -370
         V348
         C 792 246 670 168 512 168 z"/>
    <!-- Inner panel -->
    <path class="inner stroke"
      d="M512 210
         C 380 210 292 272 292 360
         v110
         c 0 166 142 273 220 312
         c 78 -39 220 -146 220 -312
         V360
         C 732 272 644 210 512 210 z"/>
  </g>

  <!-- Knight group -->
  <g id="knight" transform="translate(340,340)">
    <!-- Cape (behind) -->
    <path class="brown stroke shadow"
      d="M140 275
         c -52 20 -86 8 -100 -28
         c 26 -10 44 -28 58 -56
         c 20 20 36 50 42 84 z"/>
    <!-- Helmet main -->
    <rect x="70" y="40" rx="48" ry="48" width="280" height="220" class="helmet stroke"/>
    <!-- Helmet highlight -->
    <path class="helmet-hi stroke"
      d="M104 64 h160 a32 32 0 0 1 32 32 v0
         a32 32 0 0 1 -32 32 h-160 a32 32 0 0 1 -32 -32 v0
         a32 32 0 0 1 32 -32 z"/>
    <!-- Face -->
    <rect x="130" y="120" rx="36" ry="36" width="180" height="140" class="skin stroke"/>
    <!-- Eyes -->
    <circle cx="190" cy="186" r="16" fill="#0f172a"/>
    <circle cx="250" cy="186" r="16" fill="#0f172a"/>
    <!-- Smile -->
    <path d="M188 230 q38 40 92 0" class="stroke" fill="none"/>
    <!-- Body -->
    <rect x="150" y="260" rx="22" ry="22" width="140" height="90" class="helmet stroke"/>
    <!-- Arm holding sword -->
    <path class="helmet stroke" d="M264 282 l60 30 l-24 54 l-64 -26 z"/>
    <circle cx="314" cy="326" r="30" class="skin stroke"/>
    <!-- Legs -->
    <path class="helmet stroke" d="M178 350 l-36 84 h74 l22 -48 z"/>
    <path class="helmet stroke" d="M250 350 l30 84 h78 l-36 -104 z"/>

    <!-- Sword -->
    <g transform="translate(330,240) rotate(-18)">
      <!-- Hilt -->
      <rect x="-10" y="40" width="120" height="30" rx="14" class="gold stroke"/>
      <rect x="98" y="20" width="28" height="70" rx="10" class="gold-dk stroke"/>
      <!-- Blade -->
      <path class="white stroke"
        d="M126 16 L360 -10 L396 56 L126 86 Z"/>
      <!-- blade center line -->
      <path d="M168 38 L374 14" class="stroke" stroke-opacity=".3" fill="none"/>
    </g>
  </g>
</svg>
